<?xml version="1.0" encoding="UTF-8" standalone="no"?>
<!-- Created with Inkscape (http://www.inkscape.org/) -->

<svg
   version="1.1"
   id="svg2661"
   xml:space="preserve"
   width="682.66669"
   height="682.66669"
   viewBox="0 0 682.66669 682.66669"
   xmlns="http://www.w3.org/2000/svg"
   xmlns:svg="http://www.w3.org/2000/svg"><defs
     id="defs2665"><clipPath
       clipPathUnits="userSpaceOnUse"
       id="clipPath2675"><path
         d="M 0,512 H 512 V 0 H 0 Z"
         id="path2673" /></clipPath></defs><g
     id="g2667"
     transform="matrix(1.3333333,0,0,-1.3333333,0,682.66667)"><g
       id="g2669"><g
         id="g2671"
         clip-path="url(#clipPath2675)"><g
           id="g2677"
           transform="translate(88.1611,491.3101)"><path
             d="m 0,0 c 13.57,8.36 29.551,13.19 46.66,13.19 49.181,0 89.04,-39.86 89.04,-89.04 v -28.06"
             style="fill:none;stroke:#000000;stroke-width:15;stroke-linecap:round;stroke-linejoin:round;stroke-miterlimit:10;stroke-dasharray:none;stroke-opacity:1"
             id="path2679" /></g><g
           id="g2681"
           transform="translate(45.7813,388.1299)"><path
             d="m 0,0 v 27.33 c 0,19.48 6.26,37.5 16.87,52.15"
             style="fill:none;stroke:#000000;stroke-width:15;stroke-linecap:round;stroke-linejoin:round;stroke-miterlimit:10;stroke-dasharray:none;stroke-opacity:1"
             id="path2683" /></g><g
           id="g2685"
           transform="translate(194.8818,391.1099)"><path
             d="m 0,0 h 17.51 c 10.83,0 19.62,-8.79 19.62,-19.63 0,-10.84 -8.79,-19.62 -19.62,-19.62 H -1.311"
             style="fill:none;stroke:#000000;stroke-width:15;stroke-linecap:round;stroke-linejoin:round;stroke-miterlimit:10;stroke-dasharray:none;stroke-opacity:1"
             id="path2687" /></g><g
           id="g2689"
           transform="translate(75.002,351.8599)"><path
             d="m 0,0 h -18.82 c -10.84,0 -19.63,8.78 -19.63,19.62 0,10.84 8.79,19.63 19.63,19.63 h 17.5"
             style="fill:none;stroke:#000000;stroke-width:15;stroke-linecap:round;stroke-linejoin:round;stroke-miterlimit:10;stroke-dasharray:none;stroke-opacity:1"
             id="path2691" /></g><g
           id="g2693"
           transform="translate(85.3467,258.439)"><path
             d="m 0,0 43.646,-106.524 c 1.94,-4.736 8.646,-4.736 10.585,0 L 97.877,0"
             style="fill:none;stroke:#000000;stroke-width:15;stroke-linecap:round;stroke-linejoin:round;stroke-miterlimit:10;stroke-dasharray:none;stroke-opacity:1"
             id="path2695" /></g><g
           id="g2697"
           transform="translate(102.791,308.46)"><path
             d="m 0,0 v -41.25 c 0,-1.63 -1.029,-3.08 -2.569,-3.61 L -52.67,-62.24 c -20.26,-7.02 -33.84,-26.11 -33.84,-47.54 v -83.44 c 0,-2.76 2.24,-5 5,-5 H 98.811"
             style="fill:none;stroke:#000000;stroke-width:15;stroke-linecap:round;stroke-linejoin:round;stroke-miterlimit:10;stroke-dasharray:none;stroke-opacity:1"
             id="path2699" /></g><g
           id="g2701"
           transform="translate(165.7812,308.46)"><path
             d="m 0,0 v -41.25 c 0,-1.63 1.03,-3.08 2.57,-3.61 l 33.25,-11.53"
             style="fill:none;stroke:#000000;stroke-width:15;stroke-linecap:round;stroke-linejoin:round;stroke-miterlimit:10;stroke-dasharray:none;stroke-opacity:1"
             id="path2703" /></g><g
           id="g2705"
           transform="translate(96.0654,262.1582)"><path
             d="m 0,0 c 9.13,-10.93 22.86,-17.88 38.22,-17.88 15.36,0 29.091,6.95 38.22,17.88"
             style="fill:none;stroke:#000000;stroke-width:15;stroke-linecap:round;stroke-linejoin:round;stroke-miterlimit:10;stroke-dasharray:none;stroke-opacity:1"
             id="path2707" /></g><g
           id="g2709"
           transform="translate(65.7861,110.2378)"><path
             d="M 0,0 V 75.752"
             style="fill:none;stroke:#000000;stroke-width:15;stroke-linecap:round;stroke-linejoin:round;stroke-miterlimit:10;stroke-dasharray:none;stroke-opacity:1"
             id="path2711" /></g><g
           id="g2713"
           transform="translate(194.5283,406.4351)"><path
             d="M 0,0 C -28.409,4.542 -55.435,17.539 -76.835,36.758 -78.708,16.687 -95.593,0.975 -116.153,0.975 c -1.451,0 -2.882,0.084 -4.293,0.236 -1.082,-29.41 -0.408,-65.379 5.481,-76.846 7.693,-14.99 37.887,-34.329 54.726,-34.329 16.828,0 47.033,19.339 54.716,34.329 C 0.289,-64.32 1.026,-29.179 0,0 Z"
             style="fill:none;stroke:#000000;stroke-width:15;stroke-linecap:round;stroke-linejoin:round;stroke-miterlimit:10;stroke-dasharray:none;stroke-opacity:1"
             id="path2715" /></g><g
           id="g2717"
           transform="translate(432.1318,176.7002)"><path
             d="M 0,0 V 68.88"
             style="fill:none;stroke:#000000;stroke-width:15;stroke-linecap:round;stroke-linejoin:round;stroke-miterlimit:10;stroke-dasharray:none;stroke-opacity:1"
             id="path2719" /></g><g
           id="g2721"
           transform="translate(393.3818,275.8999)"><path
             d="M 0,0 H -34.96"
             style="fill:none;stroke:#000000;stroke-width:15;stroke-linecap:round;stroke-linejoin:round;stroke-miterlimit:10;stroke-dasharray:none;stroke-opacity:1"
             id="path2723" /></g><g
           id="g2725"
           transform="translate(432.1318,141.7002)"><path
             d="m 0,0 v -130.87 c 0,-1.84 -1.5,-3.33 -3.341,-3.33 H -227.2 c -1.84,0 -3.33,1.49 -3.33,3.33 v 261.74 c 0,1.84 1.49,3.33 3.33,3.33 h 70.37"
             style="fill:none;stroke:#000000;stroke-width:15;stroke-linecap:round;stroke-linejoin:round;stroke-miterlimit:10;stroke-dasharray:none;stroke-opacity:1"
             id="path2727" /></g><g
           id="g2729"
           transform="translate(250.7783,200.6641)"><path
             d="M 0,0 H 72.195"
             style="fill:none;stroke:#000000;stroke-width:15;stroke-linecap:round;stroke-linejoin:round;stroke-miterlimit:10;stroke-dasharray:none;stroke-opacity:1"
             id="path2731" /></g><g
           id="g2733"
           transform="translate(250.7783,134.8447)"><path
             d="M 0,0 H 72.195"
             style="fill:none;stroke:#000000;stroke-width:15;stroke-linecap:round;stroke-linejoin:round;stroke-miterlimit:10;stroke-dasharray:none;stroke-opacity:1"
             id="path2735" /></g><g
           id="g2737"
           transform="translate(250.7783,69.0254)"><path
             d="M 0,0 H 72.195"
             style="fill:none;stroke:#000000;stroke-width:15;stroke-linecap:round;stroke-linejoin:round;stroke-miterlimit:10;stroke-dasharray:none;stroke-opacity:1"
             id="path2739" /></g><g
           id="g2741"
           transform="translate(362.7744,147.5356)"><path
             d="M 0,0 11.827,-12.691 32.951,9.976"
             style="fill:none;stroke:#000000;stroke-width:15;stroke-linecap:round;stroke-linejoin:round;stroke-miterlimit:10;stroke-dasharray:none;stroke-opacity:1"
             id="path2743" /></g><g
           id="g2745"
           transform="translate(347.7979,260.3545)"><path
             d="m 0,0 h -61.866 c -5.868,0 -10.625,4.757 -10.625,10.625 v 20.303 c 0,5.868 4.757,10.626 10.625,10.626 H 0 c 5.869,0 10.626,-4.758 10.626,-10.626 V 10.625 C 10.626,4.757 5.869,0 0,0 Z"
             style="fill:none;stroke:#000000;stroke-width:15;stroke-linecap:round;stroke-linejoin:round;stroke-miterlimit:10;stroke-dasharray:none;stroke-opacity:1"
             id="path2747" /></g><g
           id="g2749"
           transform="translate(395.8613,258.7798)"><path
             d="m 0,0 -7.13,-19.6 2.26,-33.56 c 0.42,-6.25 8.06,-9.02 12.391,-4.51 l 23.309,24.26 7.13,19.6"
             style="fill:none;stroke:#000000;stroke-width:15;stroke-linecap:round;stroke-linejoin:round;stroke-miterlimit:10;stroke-dasharray:none;stroke-opacity:1"
             id="path2751" /></g><g
           id="g2753"
           transform="translate(420.9014,327.5601)"><path
             d="m 0,0 36.45,100.16 c 1.25,3.43 5.03,5.19 8.46,3.95 L 70.47,94.8 c 3.43,-1.24 5.19,-5.03 3.95,-8.46 L 37.96,-13.82"
             style="fill:none;stroke:#000000;stroke-width:15;stroke-linecap:round;stroke-linejoin:round;stroke-miterlimit:10;stroke-dasharray:none;stroke-opacity:1"
             id="path2755" /></g><g
           id="g2757"
           transform="translate(436.8398,243.8662)"><path
             d="m 0,0 -43.988,16.01 c -2.585,0.941 -3.917,3.799 -2.977,6.383 l 21.628,59.42 c 0.941,2.584 3.798,3.916 6.382,2.976 L 25.033,68.778 c 2.584,-0.94 3.916,-3.798 2.976,-6.382 L 6.382,2.976 C 5.441,0.392 2.584,-0.94 0,0 Z"
             style="fill:none;stroke:#000000;stroke-width:15;stroke-linecap:round;stroke-linejoin:round;stroke-miterlimit:10;stroke-dasharray:none;stroke-opacity:1"
             id="path2759" /></g><g
           id="g2761"
           transform="translate(478.5918,427.0137)"><path
             d="M 0,0 6.484,17.814"
             style="fill:none;stroke:#000000;stroke-width:15;stroke-linecap:round;stroke-linejoin:round;stroke-miterlimit:10;stroke-dasharray:none;stroke-opacity:1"
             id="path2763" /></g></g></g></g></svg>
