<svg id="Слой_1" enable-background="new 0 0 300 300" height="512" viewBox="0 0 300 300" width="512" xmlns="http://www.w3.org/2000/svg"><g><path d="m247.347 59.233c-10.73 0-20.67 3.429-28.81 9.236-5.821-4.92-12.143-9.204-18.849-12.763.071-1.087.12-2.18.12-3.285 0-27.527-22.343-49.921-49.807-49.921-27.465 0-49.809 22.394-49.809 49.921 0 1.105.049 2.198.12 3.286-6.704 3.557-13.026 7.841-18.849 12.762-8.139-5.807-18.078-9.236-28.808-9.236-27.464 0-49.808 22.394-49.808 49.921 0 27.526 22.344 49.919 49.808 49.919 27.463 0 49.807-22.393 49.807-49.919 0-15.107-6.739-28.657-17.35-37.819 4.916-4.078 10.192-7.68 15.756-10.759 3.896 23.66 24.44 41.767 49.134 41.767 24.692 0 45.235-18.107 49.131-41.768 5.566 3.081 10.842 6.683 15.756 10.76-10.612 9.162-17.351 22.712-17.351 37.819 0 27.526 22.344 49.919 49.809 49.919 27.463 0 49.807-22.393 49.807-49.919 0-27.527-22.344-49.921-49.807-49.921zm-149.419 49.921c0 25.026-20.309 45.386-45.273 45.386-24.965 0-45.275-20.36-45.275-45.386 0-25.027 20.31-45.388 45.275-45.388 24.964 0 45.273 20.361 45.273 45.388zm52.073-11.344c-24.965 0-45.276-20.361-45.276-45.388s20.311-45.388 45.276-45.388c24.964 0 45.273 20.361 45.273 45.388s-20.308 45.388-45.273 45.388zm97.346 56.73c-24.965 0-45.276-20.36-45.276-45.386 0-25.027 20.311-45.388 45.276-45.388 24.964 0 45.273 20.361 45.273 45.388 0 25.026-20.309 45.386-45.273 45.386z"/><path d="m284.193 94.987c-9.863-9.887-22.976-15.331-36.926-15.331-13.948 0-27.061 5.445-36.923 15.331-.883.886-.882 2.321.004 3.206.443.441 1.022.662 1.601.662.581 0 1.162-.222 1.605-.666 9.005-9.028 20.978-14 33.714-14 12.735 0 24.709 4.972 33.715 14 .884.885 2.32.887 3.206.004.887-.885.888-2.32.004-3.206z"/><path d="m247.268 93.272c-11.064 0-21.465 4.318-29.287 12.159-.883.886-.882 2.321.004 3.206.887.883 2.322.881 3.206-.004 6.965-6.982 16.227-10.828 26.077-10.828s19.112 3.846 26.077 10.828c.443.444 1.024.666 1.605.666.579 0 1.158-.221 1.601-.662.886-.884.887-2.32.004-3.206-7.822-7.841-18.223-12.159-29.287-12.159z"/><path d="m247.266 106.887c-7.919 0-15.361 3.091-20.959 8.702-.883.886-.882 2.321.004 3.206.887.882 2.322.882 3.206-.004 4.741-4.753 11.044-7.371 17.749-7.371 6.706 0 13.011 2.617 17.753 7.371.443.444 1.024.666 1.605.666.579 0 1.158-.221 1.601-.662.886-.884.887-2.32.004-3.206-5.598-5.612-13.044-8.702-20.963-8.702z"/><path d="m247.269 120.502c-7.493 0-13.587 6.107-13.587 13.612 0 7.507 6.095 13.615 13.587 13.615 7.491 0 13.584-6.108 13.584-13.615.001-7.505-6.093-13.612-13.584-13.612zm0 22.694c-4.992 0-9.054-4.075-9.054-9.082 0-5.006 4.062-9.079 9.054-9.079 4.99 0 9.051 4.073 9.051 9.079.001 5.007-4.06 9.082-9.051 9.082z"/><path d="m70.766 81.925c-1.252 0-2.267 1.015-2.267 2.267v22.696h-31.689v-22.696c0-1.252-1.015-2.267-2.267-2.267s-2.267 1.015-2.267 2.267v49.922c0 1.252 1.015 2.267 2.267 2.267s2.267-1.015 2.267-2.267v-22.694h31.689v22.694c0 1.252 1.015 2.267 2.267 2.267s2.267-1.015 2.267-2.267v-49.922c-.001-1.252-1.016-2.267-2.267-2.267z"/><path d="m25.488 91.001c-1.252 0-2.267 1.015-2.267 2.267v13.62h-6.788c-1.252 0-2.267 1.015-2.267 2.267s1.015 2.267 2.267 2.267h6.788v13.619c0 1.252 1.015 2.267 2.267 2.267s2.267-1.015 2.267-2.267v-31.773c0-1.252-1.015-2.267-2.267-2.267z"/><path d="m82.087 93.268c0-1.252-1.015-2.267-2.267-2.267s-2.267 1.015-2.267 2.267v31.772c0 1.252 1.015 2.267 2.267 2.267s2.267-1.015 2.267-2.267v-13.619h6.788c1.252 0 2.267-1.015 2.267-2.267s-1.015-2.267-2.267-2.267h-6.788z"/><path d="m159.042 27.462h-20.36s0 0-.001 0 0 0 0 0c-1.252 0-2.267 1.015-2.267 2.267v49.924c0 1.252 1.015 2.267 2.267 2.267s2.267-1.015 2.267-2.267v-18.157h18.095c7.498 0 13.598-6.101 13.598-13.6v-6.834c-.001-7.499-6.101-13.6-13.599-13.6zm9.065 20.434c0 4.999-4.067 9.067-9.065 9.067h-18.094v-24.968h18.094c4.998 0 9.065 4.068 9.065 9.067z"/><path d="m266.624 274.813h-1.165v-99.832c0-1.826-.712-3.54-2.003-4.828-1.288-1.283-2.979-2.002-4.817-1.979l-56.567.23v-22.847c0-3.755-3.048-6.809-6.794-6.809h-6.79v-11.446c0-3.75-3.05-6.8-6.8-6.8h-63.377c-3.75 0-6.8 3.05-6.8 6.8v11.446h-6.79c-3.746 0-6.794 3.055-6.794 6.809v22.599h-22.634c-3.747 0-6.796 3.053-6.796 6.805v29.246h-29.538c-1.815 0-3.521.708-4.804 1.993-1.286 1.288-1.993 3.001-1.99 4.824l.108 63.531h-1.161c-4.351 0-7.891 3.053-7.891 6.805v9.077c0 3.752 3.54 6.803 7.891 6.803l235.512.257c4.351 0 7.892-3.052 7.892-6.803v-9.077c0-3.751-3.541-6.804-7.892-6.804zm-150.579-147.511c0-1.25 1.017-2.267 2.267-2.267h63.377c1.25 0 2.267 1.017 2.267 2.267v11.354h-67.91v-11.354zm142.611 45.406c.539.011 1.171.232 1.599.658.433.431.67 1.004.67 1.616v99.832h-58.854v-101.876zm-221.958 38.309c-.001-.61.236-1.183.665-1.613.427-.427.993-.663 1.596-.663h31.805c1.252 0 2.267-1.015 2.267-2.267v-31.512c0-1.253 1.015-2.272 2.263-2.272h22.636v101.866h-61.124zm-8.944 79.421v-9.077c0-1.21 1.57-2.272 3.358-2.272h66.817v13.62h-66.817c-1.789 0-3.358-1.061-3.358-2.271zm74.707-144.88c0-1.255 1.014-2.276 2.261-2.276h90.556c1.247 0 2.261 1.021 2.261 2.276v147.408h-22.633v-34.043c0-1.252-1.015-2.267-2.267-2.267h-45.276c-1.252 0-2.267 1.015-2.267 2.267v34.043h-22.635zm27.168 115.632h18.105v31.776h-18.105zm22.638 31.776v-31.776h18.106v31.776zm117.716-2.27c0 1.209-1.57 2.27-3.359 2.27h-64.552v-13.62h64.552c1.789 0 3.359 1.062 3.359 2.272z"/><path d="m116.041 227.152h67.916.001c1.252 0 2.267-1.015 2.267-2.267 0-.002-.001-.003-.001-.005v-22.683c0-.002.001-.003.001-.005s-.001-.003-.001-.005v-22.683c0-.002.001-.003.001-.005s-.001-.003-.001-.005v-24.955c0-1.252-1.015-2.267-2.267-2.267h-67.916c-1.252 0-2.267 1.015-2.267 2.267v70.346c0 1.252 1.015 2.267 2.267 2.267zm43.012-45.386v18.16h-18.106v-18.16zm-18.106-4.533v-20.427h18.106v20.427zm40.744 22.693h-18.105v-18.16h18.105zm-22.638 4.533v18.16h-18.106v-18.16zm-22.639-4.533h-18.107v-18.16h18.107zm-18.107 4.533h18.107v18.16h-18.107zm45.279 18.159v-18.16h18.105v18.16zm18.105-45.385h-18.105v-20.427h18.105zm-45.277-20.427v20.427h-18.107v-20.427z"/><path d="m213.388 233.96h13.61c1.252 0 2.267-1.015 2.267-2.267v-18.153c0-1.252-1.015-2.267-2.267-2.267h-13.61c-1.252 0-2.267 1.015-2.267 2.267v18.153c.001 1.252 1.016 2.267 2.267 2.267zm2.267-18.153h9.077v13.62h-9.077z"/><path d="m236.053 233.96h13.584c1.252 0 2.267-1.015 2.267-2.267v-18.153c0-1.252-1.015-2.267-2.267-2.267h-13.584c-1.252 0-2.267 1.015-2.267 2.267v18.153c0 1.252 1.015 2.267 2.267 2.267zm2.266-18.153h9.051v13.62h-9.051z"/><path d="m213.388 206.728h13.61c1.252 0 2.267-1.015 2.267-2.267v-18.153c0-1.252-1.015-2.267-2.267-2.267h-13.61c-1.252 0-2.267 1.015-2.267 2.267v18.153c.001 1.252 1.016 2.267 2.267 2.267zm2.267-18.152h9.077v13.62h-9.077z"/><path d="m236.053 206.728h13.584c1.252 0 2.267-1.015 2.267-2.267v-18.153c0-1.252-1.015-2.267-2.267-2.267h-13.584c-1.252 0-2.267 1.015-2.267 2.267v18.153c0 1.252 1.015 2.267 2.267 2.267zm2.266-18.152h9.051v13.62h-9.051z"/><path d="m213.388 261.192h13.61c1.252 0 2.267-1.015 2.267-2.267v-18.153c0-1.252-1.015-2.267-2.267-2.267h-13.61c-1.252 0-2.267 1.015-2.267 2.267v18.153c.001 1.253 1.016 2.267 2.267 2.267zm2.267-18.152h9.077v13.62h-9.077z"/><path d="m236.053 261.192h13.584c1.252 0 2.267-1.015 2.267-2.267v-18.153c0-1.252-1.015-2.267-2.267-2.267h-13.584c-1.252 0-2.267 1.015-2.267 2.267v18.153c0 1.253 1.015 2.267 2.267 2.267zm2.266-18.152h9.051v13.62h-9.051z"/><path d="m86.612 215.557h-13.61c-1.252 0-2.267 1.015-2.267 2.267v18.153c0 1.252 1.015 2.267 2.267 2.267h13.61c1.252 0 2.267-1.015 2.267-2.267v-18.153c-.001-1.252-1.016-2.267-2.267-2.267zm-2.267 18.153h-9.077v-13.62h9.077z"/><path d="m63.947 215.557h-13.583c-1.252 0-2.267 1.015-2.267 2.267v18.153c0 1.252 1.015 2.267 2.267 2.267h13.583c1.252 0 2.267-1.015 2.267-2.267v-18.153c0-1.252-1.015-2.267-2.267-2.267zm-2.266 18.153h-9.05v-13.62h9.05z"/><path d="m86.612 242.786h-13.61c-1.252 0-2.267 1.015-2.267 2.267v18.153c0 1.252 1.015 2.267 2.267 2.267h13.61c1.252 0 2.267-1.015 2.267-2.267v-18.153c-.001-1.252-1.016-2.267-2.267-2.267zm-2.267 18.153h-9.077v-13.62h9.077z"/><path d="m63.947 242.786h-13.583c-1.252 0-2.267 1.015-2.267 2.267v18.153c0 1.252 1.015 2.267 2.267 2.267h13.583c1.252 0 2.267-1.015 2.267-2.267v-18.153c0-1.252-1.015-2.267-2.267-2.267zm-2.266 18.153h-9.05v-13.62h9.05z"/><path d="m183.958 249.844c1.252 0 2.267-1.015 2.267-2.267s-1.015-2.267-2.267-2.267h-67.917c-1.252 0-2.267 1.015-2.267 2.267s1.015 2.267 2.267 2.267z"/></g></svg>