<svg id="Capa_1" enable-background="new 0 0 512 512" height="512" viewBox="0 0 512 512" width="512" xmlns="http://www.w3.org/2000/svg"><g><path d="m179.843 333.261c3.261 0 6.431-1.022 9.122-2.974 3.373-2.446 5.592-6.059 6.246-10.172l15.466-97.058c1.352-8.493-4.456-16.502-12.949-17.856l-26.875-4.282c.078-4.011-.806-8.008-2.641-11.704-3.004-6.049-8.184-10.566-14.584-12.719-6.4-2.154-13.257-1.686-19.307 1.318-6.048 3.004-10.565 8.183-12.719 14.584-.072.213-.133.427-.198.641l-20.732-3.304c-4.105-.654-8.236.331-11.609 2.776-3.373 2.446-5.592 6.059-6.246 10.172l-15.467 97.059c-1.353 8.493 4.456 16.503 12.948 17.856l97.058 15.465c.83.133 1.661.198 2.487.198zm-44.025-136.079c.876-2.604 2.714-4.71 5.174-5.932 1.442-.717 2.998-1.079 4.563-1.079 1.104 0 2.212.18 3.289.543 2.604.876 4.71 2.713 5.932 5.173s1.412 5.249.536 7.852v.001c-.876 2.603-2.713 4.71-5.173 5.931-2.462 1.222-5.25 1.412-7.853.537-2.604-.876-4.711-2.713-5.933-5.173-1.22-2.462-1.411-5.25-.535-7.853zm-53.656 104.92 15.466-97.058c.01-.06.039-.244.239-.389.199-.145.383-.117.443-.106l20.818 3.317c.771.122 1.533.121 2.267.014.402 1.301.907 2.581 1.524 3.825 3.004 6.049 8.184 10.566 14.584 12.719 2.647.891 5.372 1.333 8.085 1.333 3.849 0 7.675-.89 11.222-2.651 3.71-1.842 6.835-4.51 9.201-7.769l29.357 4.678c.325.052.548.358.496.683l-15.466 97.058c-.01.06-.039.243-.239.388-.199.144-.385.116-.443.106l-97.059-15.465c-.324-.052-.547-.358-.495-.683z"/><path d="m489.219 114.767h-51.821c-.124-.071-.244-.146-.373-.21l-173.525-86.611v-4.072c0-4.142-3.357-7.5-7.5-7.5s-7.5 3.358-7.5 7.5v4.072l-173.524 86.61c-.129.064-.249.14-.373.21h-51.822c-12.561.001-22.781 10.22-22.781 22.782v335.297c0 12.562 10.22 22.781 22.781 22.781h148.192c4.143 0 7.5-3.358 7.5-7.5s-3.357-7.5-7.5-7.5h-148.192c-4.291 0-7.781-3.49-7.781-7.781v-335.297c0-4.291 3.49-7.781 7.781-7.781h466.438c4.291 0 7.781 3.49 7.781 7.781v335.297c0 4.291-3.49 7.781-7.781 7.781h-288.245c-4.143 0-7.5 3.358-7.5 7.5s3.357 7.5 7.5 7.5h288.245c12.561 0 22.781-10.219 22.781-22.781v-335.297c0-12.562-10.22-22.781-22.781-22.781zm-240.051-70.389c1.176 2.603 3.79 4.418 6.832 4.418s5.656-1.815 6.832-4.418l141.026 70.389h-295.716z"/><path d="m235.159 145.767h-191.401c-7.034 0-12.757 5.723-12.757 12.757v293.344c0 7.034 5.723 12.757 12.757 12.757h424.484c7.034 0 12.758-5.723 12.758-12.757v-293.344c0-7.034-5.724-12.757-12.758-12.757h-203.083c-4.143 0-7.5 3.358-7.5 7.5s3.357 7.5 7.5 7.5h200.841v288.858h-419.999v-288.858h189.158c4.143 0 7.5-3.358 7.5-7.5s-3.357-7.5-7.5-7.5z"/><path d="m166.53 245.698-46.883-7.97c-4.089-.691-7.957 2.055-8.65 6.137-.694 4.084 2.053 7.957 6.137 8.651l46.883 7.97c.426.072.849.107 1.266.107 3.59 0 6.764-2.586 7.385-6.244.693-4.084-2.054-7.957-6.138-8.651z"/><path d="m160.893 278.861-46.883-7.97c-4.091-.692-7.957 2.055-8.65 6.137-.694 4.083 2.053 7.957 6.137 8.651l46.883 7.97c.426.072.849.107 1.266.107 3.59 0 6.764-2.586 7.385-6.244.693-4.084-2.054-7.957-6.138-8.651z"/><path d="m252.781 257.906v49.073c0 8.48 6.899 15.379 15.379 15.379h39.61l14.484 90.579c1.226 7.662 7.868 13.136 15.394 13.136.815 0 1.641-.065 2.472-.197l94.61-15.129c4.113-.658 7.725-2.878 10.169-6.252 2.443-3.374 3.427-7.497 2.77-11.611l-15.129-94.611c-.658-4.114-2.879-7.725-6.253-10.169-1.596-1.156-3.363-1.974-5.215-2.457v-27.741c0-8.48-6.899-15.38-15.38-15.38h-137.532c-8.479 0-15.379 6.899-15.379 15.38zm180.074 137.345c.01.06.039.244-.105.444s-.329.229-.39.239l-94.61 15.129c-.324.05-.632-.17-.684-.495l-15.129-94.611c-.053-.325.17-.632.495-.684l22.438-3.588c4.497 6.104 11.712 10.095 19.859 10.16h.203c6.575 0 12.77-2.536 17.461-7.154 2.884-2.838 4.985-6.258 6.204-9.998l28.446-4.549c.059-.01.244-.039.443.106.2.146.229.329.239.389zm-77.828-98.383c.043-5.433 4.475-9.822 9.898-9.822.026 0 .054 0 .08.001 2.644.02 5.121 1.07 6.977 2.955 1.855 1.885 2.865 4.379 2.844 7.023-.021 2.645-1.07 5.123-2.955 6.978-1.884 1.854-4.338 2.886-7.022 2.844-2.645-.021-5.122-1.07-6.978-2.955-1.854-1.886-2.865-4.38-2.844-7.024zm51.044-38.962v28.804l-17.381 2.779c-1.165-3.726-3.201-7.148-6.017-10.01-4.666-4.74-10.898-7.379-17.549-7.432-.067-.001-.134-.001-.2-.001-13.639 0-24.788 11.04-24.896 24.703-.001.174.007.347.009.52l-19.974 3.194c-4.516.723-8.257 3.337-10.579 6.896h-41.324c-.209 0-.379-.17-.379-.379v-49.073c0-.21.17-.38.379-.38h137.531c.209-.001.38.169.38.379z"/><path d="m406.701 338.773c-.612-4.097-4.442-6.921-8.525-6.311l-46.021 6.87c-4.097.612-6.922 4.429-6.311 8.525.556 3.721 3.756 6.394 7.408 6.394.369 0 .742-.027 1.117-.083l46.021-6.87c4.097-.611 6.922-4.428 6.311-8.525z"/><path d="m403.035 365.015-18.502 2.762c-4.097.612-6.922 4.429-6.311 8.525.556 3.721 3.756 6.394 7.408 6.394.369 0 .742-.027 1.117-.083l18.502-2.762c4.097-.612 6.922-4.429 6.311-8.525-.611-4.098-4.439-6.919-8.525-6.311z"/><path d="m144.428 366.314h-56.439c-4.143 0-7.5 3.358-7.5 7.5s3.357 7.5 7.5 7.5h56.438c4.143 0 7.5-3.358 7.5-7.5.001-4.142-3.357-7.5-7.499-7.5z"/><path d="m144.428 397.736h-56.439c-4.143 0-7.5 3.358-7.5 7.5s3.357 7.5 7.5 7.5h56.438c4.143 0 7.5-3.358 7.5-7.5s-3.357-7.5-7.499-7.5z"/><path d="m413.571 217.179c4.143 0 7.5-3.358 7.5-7.5s-3.357-7.5-7.5-7.5h-136.049c-4.143 0-7.5 3.358-7.5 7.5s3.357 7.5 7.5 7.5z"/><path d="m186.539 386.176c0 25.012 20.348 45.36 45.359 45.36 25.012 0 45.36-20.348 45.36-45.36s-20.349-45.36-45.36-45.36-45.359 20.348-45.359 45.36zm75.72 0c0 16.741-13.619 30.36-30.36 30.36-16.74 0-30.359-13.619-30.359-30.36s13.619-30.36 30.359-30.36c16.741 0 30.36 13.619 30.36 30.36z"/></g></svg>