<svg id="Layer_1" enable-background="new 0 0 512 512" height="512" viewBox="0 0 512 512" width="512" xmlns="http://www.w3.org/2000/svg"><path d="m49.95 92.43c0-3.87 3.13-7 7-7h205.13c3.87 0 7 3.13 7 7s-3.13 7-7 7h-205.13c-3.86 0-7-3.13-7-7zm368.25 17.63v-36.46c0-3.87 3.13-7 7-7h36.45c3.87 0 7 3.13 7 7v36.45c0 3.87-3.13 7-7 7h-36.45c-3.87.01-7-3.13-7-6.99zm14-7h22.45v-22.46h-22.45zm70.8-20.59v347.06c0 25.35-20.62 45.97-45.97 45.97h-402.06c-25.35 0-45.97-20.62-45.97-45.97v-347.06c0-25.35 20.62-45.97 45.97-45.97h402.06c25.35 0 45.97 20.62 45.97 45.97zm-480 0v50.7h466v-50.7c0-17.63-14.34-31.97-31.97-31.97h-402.06c-17.63 0-31.97 14.34-31.97 31.97zm466 347.06v-282.36h-466v282.37c0 17.63 14.34 31.97 31.97 31.97h402.06c17.63-.01 31.97-14.35 31.97-31.98zm-137.39-319.47v-36.46c0-3.87 3.13-7 7-7h36.45c3.87 0 7 3.13 7 7v36.45c0 3.87-3.13 7-7 7h-36.45c-3.87.01-7-3.13-7-6.99zm14-7h22.45v-22.46h-22.45zm-80.59 7v-36.46c0-3.87 3.13-7 7-7h36.45c3.87 0 7 3.13 7 7v36.45c0 3.87-3.13 7-7 7h-36.45c-3.86.01-7-3.13-7-6.99zm14-7h22.45v-22.46h-22.45zm125.23 324.25c0 3.87-3.13 7-7 7h-6.05c-2.26 11.31-12.27 19.86-24.24 19.86s-21.97-8.55-24.24-19.86h-7.73c-2.54 10.95-12.37 19.13-24.08 19.13s-21.53-8.18-24.08-19.13h-202.61c-3.87 0-7-3.13-7-7v-158.43c-5.84-5.73-9.47-13.7-9.47-22.51v-29.02c0-1.08.25-2.14.73-3.11l19.31-38.96c2.77-5.59 8.38-9.07 14.62-9.07h36.03 41.81 41.81 41.81 41.81 36.03c6.24 0 11.85 3.48 14.62 9.07l19.31 38.96c.48.97.73 2.03.73 3.11v29.02c0 8.81-3.63 16.78-9.47 22.51v54.98h27.35c2.2 0 4.28 1.04 5.6 2.8s1.74 4.05 1.12 6.16l-16.83 57.5c-.87 2.98-3.61 5.03-6.72 5.03h-10.52v9.37h.07c10.4 0 19.32 6.46 22.96 15.58h7.32c3.87.01 7 3.15 7 7.01zm-51.35-31.95h-74.35l6.01 20.55c.52 1.79 1.74 3.15 3.33 3.85 3.6-9.21 12.56-15.76 23.04-15.76 10.68 0 19.8 6.81 23.25 16.31h9.82c1.81-4.54 4.93-8.42 8.9-11.17zm-86.63-42.83h50.25v-14.67h-54.44zm3.99 14 4.23 14.83h42.02v-14.83zm101.91 14.83 4.34-14.83h-45.99v14.83zm12.73-43.5h-54.38v14.67h50.09zm-22.54-113.51h-35.1v22.02c0 9.68 7.87 17.55 17.55 17.55s17.55-7.87 17.55-17.55zm-133.3-44.14v30.14h33.85l-4.98-30.14zm0 66.16c0 9.68 7.87 17.55 17.55 17.55s17.55-7.87 17.55-17.55v-22.02h-35.1zm49.1 0c0 9.68 7.87 17.55 17.55 17.55s17.55-7.87 17.55-17.55v-22.02h-35.1zm63.54-66.16h-26.34l9.96 30.14h32.76l-14.3-28.85c-.43-.87-1.11-1.29-2.08-1.29zm-69.58 0 4.98 30.14h33.48l-9.96-30.14zm-90.91 30.14h33.85v-30.14h-28.87zm-1.26 14v22.02c0 9.68 7.87 17.55 17.55 17.55s17.55-7.87 17.55-17.55v-22.02zm-36.45-44.14-9.96 30.14h33.48l4.98-30.14zm-12.65 66.16c0 9.68 7.87 17.55 17.55 17.55s17.55-7.87 17.55-17.55v-22.02h-35.1zm-44.82-36.02h32.76l9.96-30.14h-26.34c-.97 0-1.65.42-2.08 1.29zm-4.28 36.02c0 9.68 7.87 17.55 17.55 17.55s17.55-7.87 17.55-17.55v-22.02h-35.1zm9.47 173.94h35.46v-103.37c0-3.87 3.13-7 7-7h58.27c3.87 0 7 3.13 7 7v103.38h72.33c-.05-.16-.11-.31-.16-.47l-7.98-27.28-22.48-78.73c-.77-2.7-3.08-4.44-5.89-4.44h-9c-3.87 0-7-3.13-7-7s3.13-7 7-7h9c9.08 0 16.86 5.87 19.35 14.6l3.96 13.88h94.82v-46.99c-2.58.68-5.29 1.05-8.08 1.05-9.91 0-18.76-4.6-24.55-11.76-5.79 7.17-14.64 11.76-24.55 11.76s-18.76-4.6-24.55-11.76c-5.79 7.17-14.64 11.76-24.55 11.76s-18.76-4.6-24.55-11.76c-5.79 7.17-14.64 11.76-24.55 11.76s-18.76-4.6-24.55-11.76c-5.79 7.17-14.64 11.76-24.55 11.76s-18.76-4.6-24.55-11.76c-5.79 7.17-14.64 11.76-24.55 11.76-2.79 0-5.5-.37-8.08-1.05v143.42zm93.72-96.37h-44.27v96.38h44.27zm136.7 104.78c0-5.91-4.81-10.72-10.72-10.72s-10.72 4.81-10.72 10.72 4.81 10.72 10.72 10.72 10.72-4.81 10.72-10.72zm56.05.73c0-5.91-4.81-10.72-10.72-10.72s-10.72 4.81-10.72 10.72 4.81 10.72 10.72 10.72 10.72-4.81 10.72-10.72z"/></svg>