<?xml version="1.0" encoding="iso-8859-1"?>
<!-- Generator: Adobe Illustrator 19.0.0, SVG Export Plug-In . SVG Version: 6.00 Build 0)  -->
<svg version="1.1" id="Capa_1" xmlns="http://www.w3.org/2000/svg" xmlns:xlink="http://www.w3.org/1999/xlink" x="0px" y="0px"
	 viewBox="0 0 512 512" style="enable-background:new 0 0 512 512;" xml:space="preserve">
<g>
	<g>
		<rect x="440.42" y="193.88" width="34.643" height="15"/>
	</g>
</g>
<g>
	<g>
		<rect x="41.944" y="193.88" width="374.04" height="15"/>
	</g>
</g>
<g>
	<g>
		<path d="M373.651,131.162c-3.713-28.708-17.301-55.128-38.259-74.393c-21.228-19.514-48.534-30.261-76.889-30.261
			c-28.355,0-55.661,10.747-76.889,30.261c-20.958,19.266-34.546,45.686-38.26,74.391c-0.203,1.57-0.302,3.19-0.302,4.955h15
			c0-1.113,0.058-2.103,0.178-3.029c6.754-52.207,49.862-91.577,100.273-91.577c50.41,0,93.519,39.37,100.272,91.582
			c0.12,0.92,0.178,1.909,0.178,3.024h15C373.953,134.346,373.854,132.724,373.651,131.162z"/>
	</g>
</g>
<g>
	<g>
		<path d="M297.519,85.357c2.027-2.265,2.536-5.521,1.296-8.296c-1.231-2.747-3.956-4.526-6.961-4.56
			c0.413-1.598,0.656-3.264,0.656-4.989c0-11.019-8.964-19.983-19.982-19.983s-19.983,8.965-19.983,19.983
			c0,1.723,0.242,3.386,0.654,4.982h-27.961c-3.039,0-5.804,1.793-7.044,4.567c-1.24,2.774-0.732,6.031,1.308,8.311l31.502,35.012
			v22.323h-6.524v15h28.049v-15h-6.525v-22.323L297.519,85.357z M272.527,62.53c2.747,0,4.982,2.235,4.982,4.983
			c0,2.747-2.235,4.982-4.982,4.982c-2.748,0-4.983-2.235-4.983-4.982C267.544,64.765,269.779,62.53,272.527,62.53z
			 M258.502,106.295l-16.915-18.8h33.829L258.502,106.295z"/>
	</g>
</g>
<g>
	<g>
		<path d="M75.82,253.863v177.775h96.084V253.863H75.82z M90.82,416.639V268.863h66.084v147.776H90.82z"/>
	</g>
</g>
<g>
	<g>
		<path d="M345.101,253.863v177.775h96.084V253.863H345.101z M426.185,416.639h-66.084V268.863h66.084V416.639z"/>
	</g>
</g>
<g>
	<g>
		<rect x="131.38" y="313.15" width="15" height="87.43"/>
	</g>
</g>
<g>
	<g>
		<rect x="131.38" y="284.12" width="15" height="19.915"/>
	</g>
</g>
<g>
	<g>
		<rect x="400.66" y="311.15" width="15" height="89.43"/>
	</g>
</g>
<g>
	<g>
		<rect x="400.66" y="284.12" width="15" height="17.914"/>
	</g>
</g>
<g>
	<g>
		<rect x="7.241" y="497" width="14.515" height="15"/>
	</g>
</g>
<g>
	<g>
		<path d="M489.484,497v-36.059h-10.927V233.097h21.188V169.04H482.56v-46.245h-79.353C391.711,52.331,330.646,0,258.502,0
			S125.294,52.331,113.797,122.795H34.444v46.245H17.26v64.057h21.188v227.845H27.521V512h477.238v-15H489.484z M49.444,137.795
			h77.548l0.776-6.628C135.521,64.941,191.725,15,258.503,15c66.777,0,122.981,49.941,130.734,116.167l0.776,6.628h77.547v31.245
			H49.444V137.795z M32.26,218.097V184.04h452.485v34.057H32.26z M258.503,284.721c-33.942,0-61.556,27.614-61.556,61.557v114.663
			H53.448V233.097h410.11v227.845H320.059V346.278C320.059,312.336,292.445,284.721,258.503,284.721z M305.059,346.278v114.663
			h-39.057V300.334C288.119,303.932,305.059,323.16,305.059,346.278z M251.002,300.334v160.607h-39.056V346.278
			C211.946,323.16,228.885,303.932,251.002,300.334z M474.485,497L474.485,497H42.521v-21.059h431.964V497z"/>
	</g>
</g>
<g>
	<g>
		<rect x="69.37" y="83.86" width="32.02" height="15"/>
	</g>
</g>
<g>
	<g>
		<rect x="23.2" y="83.86" width="34.12" height="15"/>
	</g>
</g>
<g>
	<g>
		<rect x="415.61" y="83.86" width="42.09" height="15"/>
	</g>
</g>
<g>
	<g>
		<rect x="468.42" y="83.86" width="25.387" height="15"/>
	</g>
</g>
<g>
	<g>
		<rect x="57.23" y="39.05" width="64.18" height="15"/>
	</g>
</g>
<g>
	<g>
		<rect x="23.2" y="39.05" width="16.977" height="15"/>
	</g>
</g>
<g>
	<g>
		<rect x="395.59" y="39.05" width="16.04" height="15"/>
	</g>
</g>
<g>
	<g>
		<rect x="420.73" y="39.05" width="73.08" height="15"/>
	</g>
</g>
<g>
	<g>
		<rect x="276.7" y="372.86" width="15" height="30.365"/>
	</g>
</g>
<g>
	<g>
		<rect x="225.31" y="372.86" width="15" height="30.365"/>
	</g>
</g>
<g>
</g>
<g>
</g>
<g>
</g>
<g>
</g>
<g>
</g>
<g>
</g>
<g>
</g>
<g>
</g>
<g>
</g>
<g>
</g>
<g>
</g>
<g>
</g>
<g>
</g>
<g>
</g>
<g>
</g>
</svg>
