<svg xmlns="http://www.w3.org/2000/svg" version="1.1" xmlns:xlink="http://www.w3.org/1999/xlink" xmlns:svgjs="http://svgjs.com/svgjs" width="512" height="512" x="0" y="0" viewBox="0 0 512 512" style="enable-background:new 0 0 512 512" xml:space="preserve"><g><path fill="#deac47" d="M18 451c-4 0-7-1-9-4-6-6-9-14-9-22V88c0-19 15-33 33-33h157c16 0 31 20 53 62h177c18 0 32 14 32 32v24c0 7-6 13-13 13L27 448c-3 2-6 3-9 3z" data-original="#ff9a00"></path><path fill="#ffbe00" d="M422 457H30c-9 0-16-3-21-9-5-7-7-15-5-23l60-255c1-6 6-10 12-10h410c8 0 15 4 20 10s7 14 5 23l-56 238c-3 15-18 26-33 26z" data-original="#ffbe00"></path><g fill="#fff"><path d="M258 344c-15 0-28-12-28-27v-76c0-16 13-28 28-28s27 12 27 28v76c0 15-12 27-27 27zM258 407c-15 0-28-13-28-28s13-27 28-27 27 12 27 27-12 28-27 28z" fill="#ffffff" data-original="#ffffff"></path></g></g></svg>