<svg id="Layer_1" data-name="Layer 1" xmlns="http://www.w3.org/2000/svg" viewBox="0 0 96.43 38.55"><defs><style>.cls-1{fill:#deac47;}.cls-2{fill:none;stroke:#deac47;stroke-miterlimit:10;stroke-width:0.09px;}</style></defs><circle class="cls-1" cx="44.08" cy="22.78" r="0.42"/><circle class="cls-1" cx="47.13" cy="22.75" r="0.27"/><circle class="cls-1" cx="50.69" cy="27.92" r="0.31"/><circle class="cls-1" cx="52.19" cy="25.72" r="0.42"/><circle class="cls-1" cx="49.53" cy="22.75" r="0.42"/><circle class="cls-1" cx="49.26" cy="25.56" r="0.42"/><circle class="cls-1" cx="42.27" cy="28.58" r="0.42"/><circle class="cls-1" cx="40.57" cy="26.8" r="0.42"/><circle class="cls-1" cx="41.92" cy="24.83" r="0.27"/><circle class="cls-1" cx="42.73" cy="26.5" r="0.19"/><circle class="cls-1" cx="48.25" cy="24.02" r="0.19"/><circle class="cls-1" cx="46" cy="23.15" r="0.14"/><circle class="cls-1" cx="42.97" cy="23.12" r="0.14"/><circle class="cls-1" cx="52.52" cy="24.54" r="0.14"/><circle class="cls-1" cx="53.39" cy="26.49" r="0.19"/><circle class="cls-1" cx="50.57" cy="24.33" r="0.19"/><circle class="cls-1" cx="52.5" cy="27.88" r="0.19"/><circle class="cls-1" cx="50.72" cy="23.3" r="0.14"/><circle class="cls-1" cx="44.08" cy="24.72" r="0.35"/><circle class="cls-1" cx="46.79" cy="24.48" r="0.35"/><circle class="cls-1" cx="46.98" cy="21.33" r="0.29"/><polyline class="cls-2" points="42.44 28.52 40.77 26.77 42.1 24.83 42.7 26.58 44.22 24.72 46.88 24.49"/><polyline class="cls-2" points="52.5 27.83 50.72 27.87 52.2 25.71 50.6 24.34 49.31 25.55 49.58 22.78 47.22 22.78 46.88 24.49 44.22 22.82 44.22 24.72 42.1 24.83"/><line class="cls-2" x1="48.25" y1="24.02" x2="49.26" y2="25.56"/><line class="cls-2" x1="53.39" y1="26.49" x2="52.19" y2="25.72"/><polyline class="cls-2" points="50.72 27.87 50.6 24.34 52.52 24.53 52.2 25.71"/><path class="cls-2" d="M46,23.15l1.13-.4-3.05,0L43,23.12"/><circle class="cls-1" cx="40.28" cy="25.2" r="0.14"/><line class="cls-2" x1="40.28" y1="25.2" x2="41.86" y2="24.75"/><circle class="cls-1" cx="44.47" cy="25.97" r="0.1"/><line class="cls-2" x1="44.47" y1="25.97" x2="44.12" y2="24.75"/><circle class="cls-1" cx="49.43" cy="26.86" r="0.14"/><polyline class="cls-2" points="46.88 24.49 49.32 25.57 49.49 26.79"/><polyline class="cls-2" points="44.22 22.82 47.07 21.39 49.61 22.78 50.72 23.3"/><path class="cls-1" d="M45.16,28.29V26.15l.87-.81,2.53,1.73v4l-.46-.27,0-3.57L46.33,26v1.64Z"/><path class="cls-1" d="M50.31,36.34l-2.5-1.27,0,.71a11.2,11.2,0,0,0-1.32,0l.05-4.11.91-.47V29.31l-1.41-1-2.27,1.54v1.81h.35V29.93l1.49-1v6.86a10.73,10.73,0,0,0-1.13.18V33l.91-.88H43.75l-.7.71v3.56l-2.76.81a24.16,24.16,0,0,1,6-.65,20.09,20.09,0,0,1,5.25.65c.08,0,.39.14.41.1A8.43,8.43,0,0,0,50.31,36.34Z"/><polygon class="cls-1" points="47.8 31.06 47.8 31.73 49.61 32.8 49.61 32.22 47.8 31.06"/><polygon class="cls-1" points="47.8 32.06 47.8 32.72 49.61 33.8 49.61 33.22 47.8 32.06"/><polygon class="cls-1" points="47.76 33.98 47.76 34.64 49.58 35.72 49.58 35.14 47.76 33.98"/><polygon class="cls-1" points="47.76 33.02 47.76 33.68 49.58 34.76 49.58 34.18 47.76 33.02"/><path class="cls-1" d="M11.68,37.4l10.07-8.86q2.87-7.92,5.74-15.82h2.63l-1.06,2.49L37.26,7h2.39L37.7,11.23,47.86,1.4l10,5.76-2.23,1,7.13.09,3.1,7.67,0-1.84,1.48,1.11q1.31,3.2,2.59,6.39c1,2.09,1.92,4.19,2.87,6.28l11.2,9.82-26.65-.28c-.17-2.48-.46-5.18-.93-8-.41-2.58-.91-5-1.46-7.19A13.24,13.24,0,0,0,54,20c-.45-.81-.88-1.58-1.34-1.53s-.44.63-.93.74-.84-.27-1.34-.7-1.25-1-2.22-1.75l-1,1.66c-.46.76-.58.95-.83,1-.69.19-1.32-.82-1.71-.6s0,1.11-.42,1.43c-.16.12-.54.08-1.29,0l-.75-.09c-.21.43-.43.86-.64,1.3L39.84,21,37,23.43q-.87,7-1.73,14.1Z"/></svg>