<svg xmlns="http://www.w3.org/2000/svg" version="1.1" xmlns:xlink="http://www.w3.org/1999/xlink" xmlns:svgjs="http://svgjs.com/svgjs" width="512" height="512" x="0" y="0" viewBox="0 0 64 64" style="enable-background:new 0 0 512 512" xml:space="preserve" class=""><g><path d="M43.31 16.29a1.008 1.008 0 0 1-.96.71H40v2h2.35a1.008 1.008 0 0 1 .96.71 2.374 2.374 0 0 0 .17.41 1 1 0 0 1-.18 1.17l-.72.71H48a4 4 0 1 1 4-4 4 4 0 0 1-4 4h5.42l-.72-.71a1 1 0 0 1-.18-1.17 2.374 2.374 0 0 0 .17-.41 1.008 1.008 0 0 1 .96-.71H56v-2h-2.35a1.008 1.008 0 0 1-.96-.71 2.374 2.374 0 0 0-.17-.41 1 1 0 0 1 .18-1.17l1.67-1.66-1.42-1.42-1.66 1.67a1 1 0 0 1-1.17.18 2.374 2.374 0 0 0-.41-.17 1.008 1.008 0 0 1-.71-.96V10h-2v2.35a1.008 1.008 0 0 1-.71.96 2.374 2.374 0 0 0-.41.17 1 1 0 0 1-1.17-.18l-1.66-1.67-1.42 1.42 1.67 1.66a1 1 0 0 1 .18 1.17 2.374 2.374 0 0 0-.17.41zM56 43.28V32H44a.977.977 0 0 1-.89-.55L41 27.24v19.48l2.68.71a3.982 3.982 0 0 1 2.26 1.63l9.75-5.63c.1-.05.21-.1.31-.15zM38.38 24H23.62l-3 6h14.76z" fill="#deac47" data-original="#000000" opacity="1"></path><circle cx="48" cy="18" r="2" fill="#deac47" data-original="#000000" opacity="1"></circle><path d="M22 11a6.957 6.957 0 0 0 2.35 5.22A4.945 4.945 0 0 1 26 19.93V22h2v-3a1 1 0 0 1 2 0v3h2v-2.07a4.919 4.919 0 0 1 1.66-3.71A7 7 0 0 0 33 5.25V11a1 1 0 0 1-.45.83l-3 2a.963.963 0 0 1-1.1 0l-3-2A1 1 0 0 1 25 11V5.25A6.981 6.981 0 0 0 22 11zM41.62 24l3 6h14.76l-3-6zM28.76 43.44 39 46.18V27.24l-2.11 4.21A.977.977 0 0 1 36 32H24v11.72l1.25-.31a6.958 6.958 0 0 1 3.51.03zM12 44h6v16h-6z" fill="#deac47" data-original="#000000" opacity="1"></path><path d="M24.42 59h14.97a4.982 4.982 0 0 0 2.5-.67l16.8-9.7a2 2 0 0 0 .72-2.73 2.025 2.025 0 0 0-2.72-.73l-10.07 5.81a4.118 4.118 0 0 1-.11 1.35 3.975 3.975 0 0 1-1.87 2.43 3.916 3.916 0 0 1-1.99.54 4.072 4.072 0 0 1-1.04-.14l-11.93-3.19a1 1 0 0 1 .52-1.94l11.93 3.2a1.95 1.95 0 0 0 1.51-.2 1.991 1.991 0 0 0-.48-3.66l-14.92-4a4.964 4.964 0 0 0-2.51-.02L20 46.78v10.6l2.18 1.09a4.956 4.956 0 0 0 2.24.53zM4 46h6v12H4z" fill="#deac47" data-original="#000000" opacity="1"></path></g></svg>